<?xml version="1.0" encoding="utf-8"?>
<!-- Generator: Adobe Illustrator 21.1.0, SVG Export Plug-In . SVG Version: 6.00 Build 0)  -->
<svg version="1.1" id="Capa_1" xmlns="http://www.w3.org/2000/svg" xmlns:xlink="http://www.w3.org/1999/xlink" x="0px" y="0px"
	 viewBox="0 0 149.4 43.3" style="enable-background:new 0 0 149.4 43.3;" xml:space="preserve">
<style type="text/css">
	.st0{fill:#1C4E5A;}
	.st1{fill:#37A8A9;}
	.st2{fill:#137D83;}
	.st3{fill:#5DBEB6;}
	.st4{fill:#0A0B0B;}
</style>
<g>
	<g>
		<path class="st0" d="M59.6,9.2c5.1,0,10.7,2.8,11.7,9.4h-6.2C64.2,16,62.3,15,59.6,15c-3.8,0-6.2,2.7-6.2,6.8
			c0,3.6,2.4,6.7,6.2,6.7c2.7,0,4.8-1.2,5.5-3.9h6.2c-1,7.1-6.5,9.9-11.7,9.9c-6.4,0-12.7-4.3-12.7-12.6
			C46.9,13.3,53.3,9.2,59.6,9.2z"/>
	</g>
	<g>
		<path class="st0" d="M91.4,15.1h-9v3.5h8.3v5.7h-8.3v4h9.3v5.9H75.9V9.4h15.5V15.1z"/>
	</g>
	<g>
		<path class="st0" d="M97.2,34.2V9.4c3.7,0,7.3,0,11,0c6,0,9,4.6,8.9,9.3c0,4.5-3,9.1-8.9,9.1h-4.5v6.4H97.2z M108.1,22.2
			c1.7,0,2.7-1.8,2.7-3.6c0-1.8-0.9-3.5-2.7-3.5h-4.6v7.1H108.1z"/>
	</g>
	<g>
		<path class="st0" d="M135.2,34.2v-9.9h-7.7v9.9H121V9.4h6.5v9h7.7v-9h6.5v24.8H135.2z"/>
	</g>
	<polygon class="st1" points="25,12.1 7.7,13.3 7.7,16.9 25.2,15.5 25.2,16.8 37.4,15.5 37.4,12.1 25,13.2 	"/>
	<polygon class="st2" points="25,17.7 7.7,19.1 7.7,23.5 25.2,21.9 25.2,23.4 37.4,21.9 37.4,17.7 25,18.9 	"/>
	<polygon class="st0" points="25,24.3 7.7,25.9 7.7,30.4 25.2,28.5 25.2,30.3 37.4,28.5 37.4,24.3 25,25.8 	"/>
	<polygon class="st3" points="25.2,10 25.2,11 37.4,10 37.4,6.8 7.7,6.8 7.7,11 	"/>
	<polygon class="st4" points="25,33.1 25,31.3 7.7,33.3 7.7,36.5 37.4,36.5 37.4,31.3 	"/>
</g>
</svg>
